PathFileType	4	(X/Y/Z)	C:\Users\Basilio\Documents\Thesis Gigler\squatting_fais\c3dfiles\019\SLS_back_pre2\markers_experimental.trc
DataRate	CameraRate	NumFrames	NumMarkers	Units	OrigDataRate	OrigDataStartFrame	OrigNumFrames
200.000000	200.000000	4	59	mm	200.000000	1296	1482
Frame#	Time	FHD			LBHD			RBHD			C7			T10			CLAV			LSHO			LUUPA			LMUPA			LDUPA			LLEP			LMEP			LRAD			LUL			LRFIN			RSHO			RUPA1			RMUPA			RDUPA			RLEP			RMEP			RRAD			RUL			RUFIN			LASI			RASI			USACR			LSACR			RSACR			LTHI1			LTHI2			LTHI3			LTHI4			LLFC			LTIB1			LTIB2			LTIB3			LTIB4			LLMAL			LMMAL			LHEE			LMT1			LMT2			LMT5			RTHI			RTHI2			RTHI3			RTHI4			RLFC			RTIB1			RTIB2			RTIB3			RTIB4			RLMAL			RMMAL			RHEE			RMT1			RMT2			RMT5			
		X1	Y1	Z1	X2	Y2	Z2	X3	Y3	Z3	X4	Y4	Z4	X5	Y5	Z5	X6	Y6	Z6	X7	Y7	Z7	X8	Y8	Z8	X9	Y9	Z9	X10	Y10	Z10	X11	Y11	Z11	X12	Y12	Z12	X13	Y13	Z13	X14	Y14	Z14	X15	Y15	Z15	X16	Y16	Z16	X17	Y17	Z17	X18	Y18	Z18	X19	Y19	Z19	X20	Y20	Z20	X21	Y21	Z21	X22	Y22	Z22	X23	Y23	Z23	X24	Y24	Z24	X25	Y25	Z25	X26	Y26	Z26	X27	Y27	Z27	X28	Y28	Z28	X29	Y29	Z29	X30	Y30	Z30	X31	Y31	Z31	X32	Y32	Z32	X33	Y33	Z33	X34	Y34	Z34	X35	Y35	Z35	X36	Y36	Z36	X37	Y37	Z37	X38	Y38	Z38	X39	Y39	Z39	X40	Y40	Z40	X41	Y41	Z41	X42	Y42	Z42	X43	Y43	Z43	X44	Y44	Z44	X45	Y45	Z45	X46	Y46	Z46	X47	Y47	Z47	X48	Y48	Z48	X49	Y49	Z49	X50	Y50	Z50	X51	Y51	Z51	X52	Y52	Z52	X53	Y53	Z53	X54	Y54	Z54	X55	Y55	Z55	X56	Y56	Z56	X57	Y57	Z57	X58	Y58	Z58	X59	Y59	Z59	

1297	6.48	-246.4854736328126	1725.025512695313	-661.7135620117189	-373.5106506347657	1687.513305664063	-804.1190185546877	-376.4567260742188	1681.16845703125	-664.2247314453126	-398.0852050781251	1509.430786132813	-723.9420166015626	-422.6449584960939	1217.10498046875	-714.8234252929689	-260.6505126953126	1466.773315429688	-730.8789672851564	-320.2606506347657	1510.714111328125	-867.7995605468752	-197.2395172119141	1461.633422851563	-923.5686645507815	-172.336669921875	1458.306640625	-882.173522949219	-131.6860046386719	1450.692504882813	-925.9436645507815	-64.54908752441408	1405.890258789063	-953.2964477539065	-73.46118927001955	1350.977783203125	-931.5466918945315	174.5567016601563	1418.547973632813	-871.1656494140627	181.7392120361328	1371.749633789063	-917.0070800781252	247.9706115722657	1436.307739257813	-874.919616699219	-308.4485168457032	1501.4501953125	-597.4083862304689	-196.2259368896485	1402.6767578125	-506.9452209472657	-165.626449584961	1433.353637695313	-532.9994506835939	-130.139633178711	1391.814575195313	-508.982879638672	-54.03243637084962	1377.406616210938	-519.3107910156251	-67.80136108398439	1328.7255859375	-545.8000488281251	182.9741668701172	1422.18359375	-589.9603271484376	199.7108459472657	1368.207275390625	-550.3135375976564	265.4375610351563	1433.6591796875	-574.7913208007814	-283.2961730957032	1024.919189453125	-852.9942016601565	-252.1451110839844	1002.879089355469	-649.5807495117189	-424.1981201171876	1086.440063476563	-721.3395996093751	-434.0637817382814	1056.683837890625	-750.9789428710939	-423.0123901367189	1052.996826171875	-694.3530883789064	-264.8066711425782	791.4912719726565	-956.4841918945315	-194.3422088623047	742.9023437500001	-968.285095214844	-154.58154296875	763.8341674804689	-952.3880004882815	-192.1075134277344	681.4253540039064	-965.6934204101565	-166.691146850586	604.0157470703126	-953.667663574219	-232.909408569336	491.0794677734376	-904.7295532226565	-303.0166320800782	517.9536743164064	-950.1256103515627	-287.1097106933594	487.1520996093751	-925.610046386719	-350.7733764648438	457.7996215820314	-874.3979492187502	-504.3111267089845	473.2031555175782	-882.7976684570315	-473.8056640625001	468.0822143554689	-801.1284790039065	-554.9880981445314	520.9349975585939	-828.7268066406252	-492.0425109863282	314.2516784667969	-792.4107666015627	-503.1665344238282	309.5045166015626	-829.2949829101565	-547.7752685546876	335.6151733398438	-876.9776611328127	-292.8016967773438	796.2478027343752	-585.7346191406251	-253.380355834961	744.2738647460939	-599.7510986328126	-229.2308502197266	753.1124267578126	-623.9962768554689	-278.9684753417969	667.7751464843751	-601.7529907226564	-318.0908813476563	509.8257141113282	-642.1833496093751	-290.4205627441407	333.1462402343751	-718.7796020507814	-343.4786071777344	251.2684631347657	-665.9774169921876	-312.0202331542969	250.1412048339844	-701.4736328125001	-327.8433532714844	213.3315582275391	-744.1602783203126	-390.8433532714845	128.248031616211	-705.0209960937501	-379.2707824707032	136.8296051025391	-780.3147583007815	-458.1687927246095	107.1000289916992	-754.2556762695314	-259.8649291992188	54.56258010864259	-785.290222167969	-254.2284088134766	58.92890548706056	-739.8675537109376	-292.8612365722657	48.27344894409181	-684.2521972656251	
1298	6.485	-246.4295959472657	1725.096313476563	-661.9866333007814	-373.5831909179688	1687.54541015625	-804.2398681640627	-376.4703979492188	1681.282836914063	-664.3582153320314	-398.1380920410157	1509.4375	-724.0083618164064	-422.5548706054689	1217.065551757813	-715.0033569335939	-260.7243652343751	1466.789306640625	-731.0412597656251	-321.5891723632813	1510.829223632813	-869.0527343750002	-197.604476928711	1461.247436523438	-923.9652099609377	-172.5514831542969	1457.774658203125	-882.6171875000002	-132.0409240722657	1450.113403320313	-926.486022949219	-65.02016448974611	1405.032348632813	-954.0039062500002	-73.95516204833986	1350.095336914063	-932.076843261719	174.1822814941407	1417.623413085938	-871.8255004882815	181.1930389404297	1370.671142578125	-917.5799560546877	247.3738555908204	1435.475830078125	-875.7421875000002	-308.7250061035157	1501.34765625	-597.5513916015626	-196.6199035644532	1402.206665039063	-507.0236816406251	-165.8891143798828	1432.629272460938	-533.0264892578126	-130.3669586181641	1391.210327148438	-508.991668701172	-54.28882980346681	1376.58837890625	-519.1702270507814	-68.23889923095705	1328.03955078125	-545.6787109375001	182.5858459472657	1421.1064453125	-589.8933105468751	199.2288208007813	1367.145141601563	-550.5447998046876	267.8394775390626	1432.099487304688	-576.5493164062501	-283.3119201660157	1024.830078125	-853.1668701171877	-252.1814422607422	1002.876037597656	-649.7246704101564	-424.2605285644532	1086.414306640625	-721.4857788085939	-433.9551696777345	1056.6982421875	-751.0736083984376	-423.0285034179689	1053.025512695313	-694.5154418945314	-264.8966674804688	791.3638305664065	-956.5454711914065	-194.5735473632813	742.8491821289064	-968.3928833007815	-154.6232147216797	763.7222900390626	-952.437438964844	-192.2409362792969	681.2942504882814	-965.7627563476565	-166.9007263183594	603.9294433593751	-953.6889648437502	-232.9210052490235	490.9626770019532	-904.7329101562502	-302.9719848632813	517.6544799804689	-950.2192993164065	-287.1453247070313	486.8647460937501	-925.6557617187502	-350.5117492675782	457.6050109863282	-874.325622558594	-504.4414672851564	472.8477783203126	-882.7683105468752	-473.818328857422	467.7553710937501	-801.113464355469	-555.1108398437501	520.5377807617189	-828.6565551757815	-491.7514953613282	313.6469726562501	-792.4385986328127	-503.0925598144532	309.0702514648438	-829.2470703125002	-547.8513183593751	335.2909240722657	-876.8637695312502	-292.7324829101563	796.2663574218752	-585.8519287109376	-253.3336486816407	744.2907104492189	-599.9360351562501	-229.2766723632813	753.0874023437501	-624.1441040039064	-278.9316406250001	667.7757568359376	-601.7891845703126	-318.1671447753907	509.9006652832032	-642.2089843750001	-290.4497680664063	333.1467590332032	-718.7443237304689	-343.4235534667969	251.2402648925782	-665.9995727539064	-312.1243896484376	250.1687774658204	-701.4420776367189	-327.8757324218751	213.3345642089844	-744.1276855468751	-390.8502197265626	128.2507781982422	-704.9932861328126	-379.2901611328126	136.8293914794922	-780.2136840820315	-458.3346557617189	107.0830993652344	-754.1970214843751	-259.8538818359376	54.56595993041994	-785.2846679687502	-254.289535522461	58.87258911132814	-739.8245239257814	-292.8064880371094	48.22090530395509	-684.1947021484376	
1299	6.49	-246.3608398437501	1724.998901367188	-662.1192626953126	-373.7969360351563	1687.628540039063	-804.3228149414065	-376.4608459472657	1681.3251953125	-664.4126586914064	-398.2785949707032	1509.431030273438	-724.1010131835939	-422.6177978515626	1217.00439453125	-715.1309814453126	-260.9674072265626	1466.760986328125	-731.1890869140626	-320.5535278320313	1510.639770507813	-868.1347656250002	-197.8697814941407	1460.75634765625	-924.358825683594	-172.2860412597657	1457.013305664063	-882.6694946289065	-131.6667633056641	1449.397827148438	-926.6570434570315	-65.6256561279297	1404.093994140625	-954.745056152344	-74.6232376098633	1349.183715820313	-932.635681152344	173.5952911376953	1416.602783203125	-872.5479125976565	180.5289764404297	1369.5	-918.1322021484377	246.8613586425782	1434.361328125	-876.3455810546877	-308.8014221191407	1501.20556640625	-597.6328125000001	-197.0337982177735	1401.619873046875	-507.0634765625001	-166.0007781982422	1432.060180664063	-533.0631713867189	-130.6949615478516	1390.546142578125	-509.069061279297	-54.68195724487306	1375.75634765625	-519.1751708984376	-68.67531585693361	1327.35205078125	-545.5718994140626	182.2531433105469	1420.006225585938	-590.0316772460939	198.8146057128907	1365.929443359375	-550.7625122070314	267.5393981933594	1430.89453125	-576.4709472656251	-283.3494262695313	1024.778930664063	-853.326354980469	-252.1061706542969	1002.891418457031	-649.9059448242189	-424.2017211914064	1086.437866210938	-721.5901489257814	-434.1265258789064	1056.688110351563	-751.2252807617189	-422.9770812988282	1053.058837890625	-694.5848999023439	-265.0548400878907	791.3363037109377	-956.6174926757815	-194.7961730957032	742.7844238281251	-968.5107421875002	-154.7391052246094	763.6179809570314	-952.5644531250002	-192.3861846923829	681.1930541992189	-965.7952880859377	-167.098876953125	603.8088989257814	-953.7315673828127	-233.0229034423829	490.7483825683595	-904.8252563476565	-302.9110412597657	517.3925781250001	-950.2053833007815	-287.1727905273438	486.6490783691407	-925.6416625976565	-349.4556274414063	457.3006286621095	-874.2722167968752	-504.5354614257814	472.5354309082032	-882.7102050781252	-473.7887268066407	467.3105773925782	-800.992858886719	-554.9872436523439	519.9680786132814	-828.4700927734377	-491.5891418457032	313.2636718750001	-792.5203247070315	-502.9700317382814	308.6666259765626	-829.260925292969	-547.6817626953126	334.8683776855469	-876.8160400390627	-292.7349853515626	796.3366699218752	-585.9703979492189	-253.2904968261719	744.3780517578126	-600.1839599609376	-229.1540069580079	753.1604614257814	-624.3133544921876	-278.9448852539063	667.8812866210939	-601.8931884765626	-318.2219543457032	509.9291992187501	-642.2284545898439	-290.5017700195313	333.1769104003907	-718.7754516601564	-343.4766235351563	251.2489013671876	-665.9509887695314	-312.0415039062501	250.1522827148438	-701.4439086914064	-327.8959045410157	213.3246765136719	-744.1066284179689	-390.891082763672	128.2566528320313	-705.0105590820314	-379.3611755371094	136.7618865966797	-780.247253417969	-458.3115844726564	106.982780456543	-754.2049560546876	-259.8521423339844	54.57164764404298	-785.2814941406252	-254.2559967041016	58.85898971557619	-739.7879638671876	-292.8153076171876	48.22652053833009	-684.1781616210939	
1300	6.495	-246.2905273437501	1724.951782226563	-662.2465209960939	-373.8793029785157	1687.710815429688	-804.334167480469	-376.4996643066407	1681.410522460938	-664.4742431640626	-398.3392028808595	1509.409057617188	-724.2153320312501	-422.6791992187501	1216.974853515625	-715.2745361328126	-261.0021057128907	1466.825439453125	-731.3396606445314	-321.1351318359376	1510.642211914063	-868.479431152344	-198.0508422851563	1460.273803710938	-924.8912353515627	-173.1510314941407	1456.616943359375	-883.573669433594	-132.7461700439453	1448.634643554688	-927.598327636719	-66.1604461669922	1403.0068359375	-955.543884277344	-75.30134582519533	1348.175048828125	-933.2581176757815	172.9607086181641	1415.356201171875	-873.2952880859377	179.9498596191407	1368.172729492188	-918.6656494140627	246.3145751953126	1433.607666015625	-877.3267211914065	-308.9812316894532	1501.147216796875	-597.6913452148439	-197.4230957031251	1401.007934570313	-507.2040100097657	-166.3235168457032	1431.378173828125	-533.0778198242189	-131.1882019042969	1389.742431640625	-509.1253356933595	-55.19812011718751	1374.664794921875	-519.1904907226564	-69.21628570556642	1326.342407226563	-545.8848876953126	185.4778137207032	1418.348876953125	-587.4162597656251	198.5217437744141	1364.617797851563	-550.9234008789064	266.8883666992188	1429.937133789063	-576.6834106445314	-283.4296264648438	1024.769897460938	-853.4970703125002	-252.0792999267579	1002.982971191406	-650.1021728515626	-424.1948547363282	1086.523803710938	-721.7071533203126	-434.0905761718751	1056.691650390625	-751.3190307617189	-422.9536743164064	1053.062133789063	-694.7250366210939	-265.1671142578126	791.2717895507815	-956.7097778320315	-194.8524475097657	742.6734008789064	-968.519714355469	-154.8517761230469	763.4872436523439	-952.6550903320315	-192.4946289062501	681.1178588867189	-965.8590087890627	-167.229476928711	603.6552734375001	-953.7567138671877	-233.0451660156251	490.5898742675782	-904.8425292968752	-303.0919494628907	517.2060546875001	-950.2052001953127	-287.2503662109376	486.4209289550782	-925.6622314453127	-350.5592956542969	457.0401916503907	-874.517761230469	-504.4966430664064	472.1304931640626	-882.5570068359377	-473.8788146972657	466.9398498535157	-800.9595336914065	-555.1348266601564	519.5170898437501	-828.4949340820315	-491.6173400878907	312.9161682128907	-792.194274902344	-502.806121826172	308.2245178222657	-829.280944824219	-547.4318847656251	334.2951049804688	-876.835388183594	-292.6744995117188	796.3699340820315	-586.0991210937501	-253.2203674316407	744.4262695312501	-600.3312377929689	-229.0289764404297	753.1625976562501	-624.4702758789064	-278.8794250488282	667.8606567382814	-601.9628906250001	-318.1691284179688	509.8530578613282	-642.2634887695314	-290.5284423828126	333.2167663574219	-718.7854614257814	-343.4783630371094	251.2615203857422	-665.9647827148439	-312.1418762207032	250.1560516357422	-701.3614501953126	-327.8814392089844	213.3549194335938	-744.1241455078126	-390.8596801757814	128.2291259765625	-705.0054931640626	-379.3399047851563	136.8401794433594	-780.2757568359377	-458.2586669921876	107.0730361938477	-754.1992797851564	-259.5589904785157	54.14987182617189	-785.2263793945315	-254.1792144775391	58.90878295898439	-739.7520141601564	-292.8112487792969	48.22402954101564	-684.1979370117189	
